<svg fill="#FFFFFF" xmlns="http://www.w3.org/2000/svg"  viewBox="0 0 50 50" width="100px" height="100px"><path d="M 7 4 A 1.0001 1.0001 0 0 0 6 5 C 6 5.5650302 5.5650302 6 5 6 A 1.0001 1.0001 0 0 0 4 7 L 4 11 A 1.0001 1.0001 0 0 0 5 12 C 5.5650302 12 6 12.43497 6 13 C 6 13.56503 5.5650302 14 5 14 A 1.0001 1.0001 0 0 0 4 15 L 4 19 A 1.0001 1.0001 0 0 0 5 20 C 5.5650302 20 6 20.43497 6 21 C 6 21.56503 5.5650302 22 5 22 A 1.0001 1.0001 0 0 0 4 23 L 4 27 A 1.0001 1.0001 0 0 0 5 28 C 5.5650302 28 6 28.43497 6 29 C 6 29.56503 5.5650302 30 5 30 A 1.0001 1.0001 0 0 0 4 31 L 4 35 A 1.0001 1.0001 0 0 0 5 36 C 5.5650302 36 6 36.43497 6 37 C 6 37.56503 5.5650302 38 5 38 A 1.0001 1.0001 0 0 0 4 39 L 4 43 A 1.0001 1.0001 0 0 0 5 44 C 5.5650302 44 6 44.43497 6 45 A 1.0001 1.0001 0 0 0 7 46 L 11 46 A 1.0001 1.0001 0 0 0 12 45 C 12 44.43497 12.43497 44 13 44 C 13.56503 44 14 44.43497 14 45 A 1.0001 1.0001 0 0 0 15 46 L 19 46 A 1.0001 1.0001 0 0 0 20 45 C 20 44.43497 20.43497 44 21 44 C 21.56503 44 22 44.43497 22 45 A 1.0001 1.0001 0 0 0 23 46 L 27 46 A 1.0001 1.0001 0 0 0 28 45 C 28 44.43497 28.43497 44 29 44 C 29.56503 44 30 44.43497 30 45 A 1.0001 1.0001 0 0 0 31 46 L 35 46 A 1.0001 1.0001 0 0 0 36 45 C 36 44.43497 36.43497 44 37 44 C 37.56503 44 38 44.43497 38 45 A 1.0001 1.0001 0 0 0 39 46 L 43 46 A 1.0001 1.0001 0 0 0 44 45 C 44 44.43497 44.43497 44 45 44 A 1.0001 1.0001 0 0 0 46 43 L 46 39 A 1.0001 1.0001 0 0 0 45 38 C 44.43497 38 44 37.56503 44 37 C 44 36.43497 44.43497 36 45 36 A 1.0001 1.0001 0 0 0 46 35 L 46 31 A 1.0001 1.0001 0 0 0 45 30 C 44.43497 30 44 29.56503 44 29 C 44 28.43497 44.43497 28 45 28 A 1.0001 1.0001 0 0 0 46 27 L 46 23 A 1.0001 1.0001 0 0 0 45 22 C 44.43497 22 44 21.56503 44 21 C 44 20.43497 44.43497 20 45 20 A 1.0001 1.0001 0 0 0 46 19 L 46 15 A 1.0001 1.0001 0 0 0 45 14 C 44.43497 14 44 13.56503 44 13 C 44 12.43497 44.43497 12 45 12 A 1.0001 1.0001 0 0 0 46 11 L 46 7 A 1.0001 1.0001 0 0 0 45 6 C 44.43497 6 44 5.5650302 44 5 A 1.0001 1.0001 0 0 0 43 4 L 39 4 A 1.0001 1.0001 0 0 0 38 5 C 38 5.5650302 37.56503 6 37 6 C 36.43497 6 36 5.5650302 36 5 A 1.0001 1.0001 0 0 0 35 4 L 31 4 A 1.0001 1.0001 0 0 0 30 5 C 30 5.5650302 29.56503 6 29 6 C 28.43497 6 28 5.5650302 28 5 A 1.0001 1.0001 0 0 0 27 4 L 23 4 A 1.0001 1.0001 0 0 0 22 5 C 22 5.5650302 21.56503 6 21 6 C 20.43497 6 20 5.5650302 20 5 A 1.0001 1.0001 0 0 0 19 4 L 15 4 A 1.0001 1.0001 0 0 0 14 5 C 14 5.5650302 13.56503 6 13 6 C 12.43497 6 12 5.5650302 12 5 A 1.0001 1.0001 0 0 0 11 4 L 7 4 z M 7.5839844 6 L 10.416016 6 C 10.85942 7.1066944 11.743378 8 13 8 C 14.256622 8 15.14058 7.1066944 15.583984 6 L 18.416016 6 C 18.85942 7.1066944 19.743378 8 21 8 C 22.256622 8 23.14058 7.1066944 23.583984 6 L 26.416016 6 C 26.85942 7.1066944 27.743378 8 29 8 C 30.256622 8 31.14058 7.1066944 31.583984 6 L 34.416016 6 C 34.85942 7.1066944 35.743378 8 37 8 C 38.256622 8 39.14058 7.1066944 39.583984 6 L 42.416016 6 C 42.72239 6.7646805 43.235319 7.2776104 44 7.5839844 L 44 10.416016 C 42.893306 10.85942 42 11.743378 42 13 C 42 14.256622 42.893306 15.14058 44 15.583984 L 44 18.416016 C 42.893306 18.85942 42 19.743378 42 21 C 42 22.256622 42.893306 23.14058 44 23.583984 L 44 26.416016 C 42.893306 26.85942 42 27.743378 42 29 C 42 30.256622 42.893306 31.14058 44 31.583984 L 44 34.416016 C 42.893306 34.85942 42 35.743378 42 37 C 42 38.256622 42.893306 39.14058 44 39.583984 L 44 42.416016 C 43.235319 42.72239 42.72239 43.235319 42.416016 44 L 39.583984 44 C 39.14058 42.893306 38.256622 42 37 42 C 35.743378 42 34.85942 42.893306 34.416016 44 L 31.583984 44 C 31.14058 42.893306 30.256622 42 29 42 C 27.743378 42 26.85942 42.893306 26.416016 44 L 23.583984 44 C 23.14058 42.893306 22.256622 42 21 42 C 19.743378 42 18.85942 42.893306 18.416016 44 L 15.583984 44 C 15.14058 42.893306 14.256622 42 13 42 C 11.743378 42 10.85942 42.893306 10.416016 44 L 7.5839844 44 C 7.2776104 43.235319 6.7646805 42.72239 6 42.416016 L 6 39.583984 C 7.1066944 39.14058 8 38.256622 8 37 C 8 35.743378 7.1066944 34.85942 6 34.416016 L 6 31.583984 C 7.1066944 31.14058 8 30.256622 8 29 C 8 27.743378 7.1066944 26.85942 6 26.416016 L 6 23.583984 C 7.1066944 23.14058 8 22.256622 8 21 C 8 19.743378 7.1066944 18.85942 6 18.416016 L 6 15.583984 C 7.1066944 15.14058 8 14.256622 8 13 C 8 11.743378 7.1066944 10.85942 6 10.416016 L 6 7.5839844 C 6.7646805 7.2776104 7.2776104 6.7646805 7.5839844 6 z M 16.169922 10 L 10.445312 37 L 17.517578 37 L 19.863281 26 L 28.550781 26 L 19.953125 34.513672 L 22.578125 39.15625 L 23.472656 38.558594 C 23.88111 38.28612 25.049905 38.132812 25.892578 38.132812 C 27.257356 38.132812 28.815514 38.660156 30.652344 38.660156 C 32.181788 38.660156 33.966133 38.523024 36.570312 37.273438 L 37.013672 37.060547 L 38.376953 30.660156 L 36.623047 31.380859 C 35.051486 32.027753 32.619272 32.660156 30.652344 32.660156 C 30.529434 32.660156 30.376782 32.616172 30.251953 32.607422 L 38.460938 24.623047 L 39.105469 22 L 38.320312 22 L 38.320312 20 L 37.537109 20 L 21.146484 20 L 21.787109 17 L 33.304688 17 L 34.794922 10 L 16.169922 10 z M 17.791016 12 L 32.322266 12 L 31.685547 15 L 20.169922 15 L 18.673828 22 L 37.046875 22 L 36.65625 23.589844 L 25.939453 34.011719 L 27.921875 34.318359 C 28.728479 34.443247 29.612362 34.660156 30.652344 34.660156 C 32.379565 34.660156 34.110133 34.255963 35.669922 33.771484 L 35.275391 35.623047 C 33.241614 36.525826 31.985056 36.660156 30.652344 36.660156 C 29.251174 36.660156 27.7018 36.132813 25.892578 36.132812 C 25.211125 36.132812 24.293717 36.229952 23.386719 36.521484 L 22.445312 34.859375 L 33.414062 24 L 18.244141 24 L 15.900391 35 L 12.914062 35 L 17.791016 12 z"/></svg>